<svg width="19" height="19" viewBox="0 0 15 19" fill="none" xmlns="http://www.w3.org/2000/svg">
<path fill-rule="evenodd" clip-rule="evenodd" d="M0.320205 6.0375C0 6.7337 0 7.52572 0 9.10977V14.0569C0 16.2568 0 17.3567 0.683418 18.0401C1.36684 18.7236 2.46678 18.7236 4.66667 18.7236H4.75V12.8903C4.75 11.9698 5.49619 11.2236 6.41667 11.2236H9.91667C10.8371 11.2236 11.5833 11.9698 11.5833 12.8903V18.7236H11.6667C13.8666 18.7236 14.9665 18.7236 15.6499 18.0401C16.3333 17.3567 16.3333 16.2568 16.3333 14.0569V9.10977C16.3333 7.52572 16.3333 6.7337 16.0131 6.0375C15.6929 5.34131 15.0916 4.82586 13.8889 3.79498L12.7222 2.79498C10.5483 0.931659 9.4614 0 8.16667 0C6.87193 0 5.785 0.931659 3.61113 2.79498L2.44446 3.79498C1.24176 4.82586 0.64041 5.34131 0.320205 6.0375ZM10.5833 18.7236V12.8903C10.5833 12.5221 10.2849 12.2236 9.91667 12.2236H6.41667C6.04848 12.2236 5.75 12.5221 5.75 12.8903V18.7236H10.5833Z" fill="#4E4E4E"/>
</svg>
