<svg width="18" height="21" viewBox="0 0 18 21" fill="none" xmlns="http://www.w3.org/2000/svg">
<path d="M1 10.1098C1 8.52572 1 7.7337 1.3202 7.0375C1.64041 6.34131 2.24176 5.82586 3.44446 4.79498L4.61113 3.79498C6.785 1.93166 7.87193 1 9.16667 1C10.4614 1 11.5483 1.93166 13.7222 3.79498L14.8889 4.79498C16.0916 5.82586 16.6929 6.34131 17.0131 7.0375C17.3333 7.7337 17.3333 8.52572 17.3333 10.1098V15.0569C17.3333 17.2568 17.3333 18.3567 16.6499 19.0401C15.9665 19.7236 14.8666 19.7236 12.6667 19.7236H5.66667C3.46678 19.7236 2.36684 19.7236 1.68342 19.0401C1 18.3567 1 17.2568 1 15.0569V10.1098Z" stroke="#4E4E4E"/>
<path d="M12.0833 19.7236V13.7236C12.0833 13.1713 11.6356 12.7236 11.0833 12.7236H7.25C6.69772 12.7236 6.25 13.1713 6.25 13.7236V19.7236" stroke="#4E4E4E" stroke-linecap="round" stroke-linejoin="round"/>
</svg>
