<svg width="20" height="18" viewBox="0 0 20 18" fill="none" xmlns="http://www.w3.org/2000/svg">
<path fill-rule="evenodd" clip-rule="evenodd" d="M0.87868 0.87868C0 1.75736 0 3.17157 0 6V12C0 14.8284 0 16.2426 0.87868 17.1213C1.75736 18 3.17157 18 6 18H14C16.8284 18 18.2426 18 19.1213 17.1213C20 16.2426 20 14.8284 20 12V6C20 3.17157 20 1.75736 19.1213 0.87868C18.2426 0 16.8284 0 14 0H6C3.17157 0 1.75736 0 0.87868 0.87868ZM14 5.5C14.2761 5.5 14.5 5.72386 14.5 6V14C14.5 14.2761 14.2761 14.5 14 14.5C13.7239 14.5 13.5 14.2761 13.5 14V6C13.5 5.72386 13.7239 5.5 14 5.5ZM6.5 8C6.5 7.72386 6.27614 7.5 6 7.5C5.72386 7.5 5.5 7.72386 5.5 8V14C5.5 14.2761 5.72386 14.5 6 14.5C6.27614 14.5 6.5 14.2761 6.5 14V8ZM10.5 10C10.5 9.72386 10.2761 9.5 10 9.5C9.72386 9.5 9.5 9.72386 9.5 10V14C9.5 14.2761 9.72386 14.5 10 14.5C10.2761 14.5 10.5 14.2761 10.5 14V10Z" fill="#4E4E4E"/>
</svg>
