<svg width="21" height="20" viewBox="0 0 21 20" fill="none" xmlns="http://www.w3.org/2000/svg">
<path d="M19 4.00001L19 7C19 7.47141 19 7.70711 18.8536 7.85355C18.7071 8 18.4714 8 18 8L13 8L13 19L10 18L7 19L4 18L1 19L0.999999 5.00001C0.999999 3.11439 0.999999 2.17158 1.58579 1.58579C2.17157 1.00001 3.11438 1.00001 5 1.00001L16 1.00001C17.6569 1.00001 19 2.34315 19 4.00001Z" fill="#4E4E4E"/>
<path d="M16 1.00001V1.00001C17.6569 1.00001 19 2.34315 19 4.00001L19 7C19 7.4714 19 7.70711 18.8536 7.85355C18.8536 7.85355 18.8536 7.85355 18.8536 7.85355C18.7071 8 18.4714 8 18 8L13 8M16 1.00001V1.00001C14.3431 1.00001 13 2.34315 13 4L13 8M16 1.00001L5 1.00001C3.11438 1.00001 2.17157 1.00001 1.58579 1.58579C0.999999 2.17158 0.999999 3.11439 0.999999 5.00001L1 19L4 18L7 19L10 18L13 19L13 8" stroke="#4E4E4E"/>
<path d="M5 5L9 5" stroke="#F9F9F9" stroke-linecap="round"/>
<path d="M6 9H5" stroke="#F9F9F9" stroke-linecap="round"/>
<path d="M5 13L8 13" stroke="#F9F9F9" stroke-linecap="round"/>
<rect x="14" y="1" width="6" height="18" rx="3" stroke="#F9F9F9"/>
</svg>
