<svg width="15" height="19" viewBox="0 0 15 19" fill="none" xmlns="http://www.w3.org/2000/svg">
<path fill-rule="evenodd" clip-rule="evenodd" d="M2 0C0.895431 0 0 0.895431 0 2V7.98389V17C0 18.1046 0.89543 19 2 19H13C14.1046 19 15 18.1046 15 17L15 8.00115L0 7.98389L0.00115095 6.98389L15 7.00115V8.00032L15.0012 7.00115L15 7.00115V2C15 0.895431 14.1046 0 13 0H2ZM3.5 4C3.5 3.72386 3.27614 3.5 3 3.5C2.72386 3.5 2.5 3.72386 2.5 4V6C2.5 6.27614 2.72386 6.5 3 6.5C3.27614 6.5 3.5 6.27614 3.5 6V4ZM3 8.5C3.27614 8.5 3.5 8.72386 3.5 9V11C3.5 11.2761 3.27614 11.5 3 11.5C2.72386 11.5 2.5 11.2761 2.5 11V9C2.5 8.72386 2.72386 8.5 3 8.5Z" fill="#4E4E4E"/>
</svg>
