<svg width="15" height="19" viewBox="0 0 15 19" fill="none" xmlns="http://www.w3.org/2000/svg">
<path fill-rule="evenodd" clip-rule="evenodd" d="M2 1H13C13.5523 1 14 1.44772 14 2V7L1 6.98504V2C1 1.44772 1.44772 1 2 1ZM1 7.98504L14 8V17C14 17.5523 13.5523 18 13 18H2C1.44772 18 1 17.5523 1 17V7.98504ZM15 8.00115L15 17C15 18.1046 14.1046 19 13 19H2C0.89543 19 0 18.1046 0 17V7.98389V2C0 0.895431 0.895431 0 2 0H13C14.1046 0 15 0.895431 15 2V7.00115L15.0012 7.00115L15 8.00032L15 8.00115ZM3 3.5C3.27614 3.5 3.5 3.72386 3.5 4V6C3.5 6.27614 3.27614 6.5 3 6.5C2.72386 6.5 2.5 6.27614 2.5 6V4C2.5 3.72386 2.72386 3.5 3 3.5ZM3.5 9C3.5 8.72386 3.27614 8.5 3 8.5C2.72386 8.5 2.5 8.72386 2.5 9V11C2.5 11.2761 2.72386 11.5 3 11.5C3.27614 11.5 3.5 11.2761 3.5 11V9Z" fill="#4E4E4E"/>
</svg>
